<?xml version="1.0" standalone="no"?>
<!DOCTYPE svg PUBLIC "-//W3C//DTD SVG 20010904//EN"
 "http://www.w3.org/TR/2001/REC-SVG-20010904/DTD/svg10.dtd">
<svg version="1.0" xmlns="http://www.w3.org/2000/svg"
 width="500.000000pt" height="500.000000pt" viewBox="0 0 500.000000 500.000000"
 preserveAspectRatio="xMidYMid meet">

<g transform="translate(0.000000,500.000000) scale(0.100000,-0.100000)"
fill="#ffffff" stroke="none">
<path d="M1160 2510 l0 -1910 73 0 72 0 23 94 c86 357 354 625 727 728 79 22
89 22 933 26 l852 3 0 70 0 70 -845 -3 -845 -3 -2 1415 -3 1415 -67 3 -68 3 0
-1383 c0 -761 -3 -1407 -6 -1436 l-7 -52 -56 -17 c-74 -23 -75 -23 -76 12 -1
17 -2 670 -3 1453 l-2 1423 -67 -3 -68 -3 -3 -1490 -2 -1490 -62 -40 c-34 -22
-66 -41 -70 -43 -4 -2 -9 686 -10 1530 l-3 1533 -65 0 -65 0 -3 -1603 -2
-1603 -54 -72 c-29 -40 -60 -83 -67 -97 -12 -21 -15 226 -19 1675 l-5 1700
-67 3 -68 3 0 -1911z"/>
<path d="M2190 1300 c-140 -18 -297 -80 -402 -158 -78 -57 -180 -170 -228
-251 -46 -77 -100 -219 -100 -264 l0 -28 66 3 66 3 17 55 c74 235 250 408 493
482 73 22 77 22 906 26 l832 3 0 69 0 70 -797 -1 c-439 -1 -823 -5 -853 -9z"/>
<path d="M2146 1004 c-118 -28 -255 -126 -326 -231 -24 -36 -80 -154 -80 -170
0 -2 33 -3 73 -3 l74 0 23 49 c44 94 145 179 253 213 55 17 113 18 868 18
l809 0 0 70 0 70 -817 -1 c-670 -1 -829 -3 -877 -15z"/>
<path d="M2199 724 c-44 -13 -149 -94 -149 -115 0 -5 366 -9 895 -9 l895 0 0
70 0 70 -797 -1 c-662 0 -806 -3 -844 -15z"/>
</g>
</svg>
